<?xml version="1.0" encoding="UTF-8"?>
<svg width="1e3" height="1e3" version="1.1" viewBox="0 0 264.58 264.58">
 <path d="m132.55 13.428a23.676 23.676 0 0 0-16.667 6.9103l-98.603 98.317a23.676 23.676 0 0 0-0.04817 33.483l22.915 22.981 59.012-59.012 12.545-12.546 41.077 41.077 60.326-60.326-63.741-63.926a23.676 23.676 0 0 0-16.815-6.9585zm93.893 84.26-72.852 72.852-41.076-41.076-59.032 59.031 62.065 62.245a23.676 23.676 0 0 0 33.482 0.0481l98.603-98.317a23.676 23.676 0 0 0 0.0481-33.482z" fill-rule="evenodd" stroke-width=".3766"/>
</svg>
